<svg width="110" height="99" viewBox="0 0 110 99" fill="none" xmlns="http://www.w3.org/2000/svg">
<g id="Group 127">
<path id="Vector" d="M93.4996 21.9999H76.9997V13.7499C76.9997 10.1032 75.551 6.60588 72.9724 4.02726C70.3938 1.44865 66.8964 0 63.2497 0H46.7498C43.1031 0 39.6057 1.44865 37.0271 4.02726C34.4485 6.60588 32.9999 10.1032 32.9999 13.7499V21.9999H16.4999C12.1239 21.9999 7.92706 23.7383 4.83272 26.8326C1.73838 29.927 0 34.1238 0 38.4998V82.4996C0 86.8757 1.73838 91.0725 4.83272 94.1669C7.92706 97.2612 12.1239 98.9996 16.4999 98.9996H93.4996C97.8757 98.9996 102.072 97.2612 105.167 94.1669C108.261 91.0725 110 86.8757 110 82.4996V38.4998C110 34.1238 108.261 29.927 105.167 26.8326C102.072 23.7383 97.8757 21.9999 93.4996 21.9999ZM43.9998 13.7499C43.9998 13.0206 44.2895 12.3211 44.8053 11.8054C45.321 11.2897 46.0205 11 46.7498 11H63.2497C63.9791 11 64.6786 11.2897 65.1943 11.8054C65.71 12.3211 65.9997 13.0206 65.9997 13.7499V21.9999H43.9998V13.7499ZM98.9996 82.4996C98.9996 83.9583 98.4201 85.3573 97.3887 86.3887C96.3572 87.4202 94.9583 87.9996 93.4996 87.9996H16.4999C15.0412 87.9996 13.6423 87.4202 12.6109 86.3887C11.5794 85.3573 11 83.9583 11 82.4996V38.4998C11 37.0411 11.5794 35.6422 12.6109 34.6108C13.6423 33.5793 15.0412 32.9999 16.4999 32.9999H93.4996C94.9583 32.9999 96.3572 33.5793 97.3887 34.6108C98.4201 35.6422 98.9996 37.0411 98.9996 38.4998V82.4996Z" fill="#FF5FAC"/>
<path id="Vector_2" d="M55.723 42.0601C51.9157 42.0601 48.1939 43.1891 45.0283 45.3043C41.8626 47.4195 39.3953 50.4259 37.9384 53.9434C36.4814 57.4609 36.1002 61.3314 36.8429 65.0655C37.5857 68.7996 39.4191 72.2296 42.1112 74.9218C44.8034 77.6139 48.2334 79.4473 51.9675 80.1901C55.7016 80.9328 59.5721 80.5516 63.0896 79.0946C66.607 77.6377 69.6135 75.1704 71.7287 72.0047C73.8439 68.8391 74.9729 65.1173 74.9729 61.31C74.9729 56.2046 72.9448 51.3083 69.3347 47.6983C65.7246 44.0882 60.8284 42.0601 55.723 42.0601ZM55.723 69.56C54.0913 69.56 52.4962 69.0761 51.1395 68.1696C49.7828 67.2631 48.7254 65.9746 48.101 64.4672C47.4766 62.9597 47.3132 61.3009 47.6315 59.7005C47.9498 58.1002 48.7356 56.6302 49.8894 55.4764C51.0431 54.3226 52.5131 53.5369 54.1135 53.2186C55.7138 52.9003 57.3726 53.0636 58.8801 53.6881C60.3876 54.3125 61.676 55.3699 62.5826 56.7266C63.4891 58.0833 63.9729 59.6783 63.9729 61.31C63.9729 63.4981 63.1037 65.5965 61.5566 67.1436C60.0094 68.6908 57.911 69.56 55.723 69.56Z" fill="#FF5FAC"/>
</g>
</svg>
