<svg width="8" height="6" viewBox="0 0 8 6" fill="none" xmlns="http://www.w3.org/2000/svg">
<path id="Vector" d="M5.60047 0C6.76329 0 7.3447 0 7.63371 0.244339C7.86367 0.438756 7.99743 0.723776 8.00003 1.0249C8.0033 1.40333 7.63177 1.85055 6.88872 2.74499L5.28825 4.67155C4.8367 5.2151 4.61092 5.48688 4.33841 5.58128C4.11919 5.65722 3.88081 5.65722 3.66159 5.58128C3.38908 5.48688 3.1633 5.2151 2.71175 4.67155L1.11128 2.745C0.368229 1.85056 -0.00329621 1.40333 -2.88384e-05 1.0249C0.00257106 0.723776 0.136333 0.438756 0.366293 0.244339C0.655301 0 1.23671 0 2.39953 0H5.60047Z" fill="#182848"/>
</svg>
