<svg width="110" height="99" viewBox="0 0 110 99" fill="none" xmlns="http://www.w3.org/2000/svg">
<g id="Group">
<path id="Vector" d="M38.4999 43.9999C42.8511 43.9999 47.1046 42.7097 50.7225 40.2923C54.3404 37.8749 57.1601 34.439 58.8253 30.419C60.4904 26.399 60.9261 21.9756 60.0772 17.708C59.2283 13.4404 57.133 9.5204 54.0563 6.44365C50.9795 3.3669 47.0595 1.27161 42.7919 0.422733C38.5244 -0.42614 34.1009 0.0095322 30.0809 1.67466C26.061 3.33978 22.625 6.15957 20.2076 9.77745C17.7903 13.3953 16.5 17.6488 16.5 22C16.5 27.8347 18.8178 33.4305 22.9436 37.5563C27.0694 41.6821 32.6652 43.9999 38.4999 43.9999ZM38.4999 11C40.6755 11 42.8023 11.6451 44.6112 12.8538C46.4202 14.0625 47.83 15.7805 48.6626 17.7905C49.4952 19.8004 49.713 22.0122 49.2886 24.146C48.8641 26.2798 47.8165 28.2398 46.2781 29.7781C44.7397 31.3165 42.7797 32.3642 40.6459 32.7886C38.5122 33.213 36.3004 32.9952 34.2904 32.1626C32.2805 31.3301 30.5625 29.9202 29.3538 28.1112C28.1451 26.3023 27.5 24.1756 27.5 22C27.5 19.0826 28.6589 16.2847 30.7218 14.2218C32.7847 12.1589 35.5826 11 38.4999 11Z" fill="#FF5FAC"/>
<path id="Vector_2" d="M82.4999 54.9998C85.7633 54.9998 88.9534 54.0321 91.6668 52.2191C94.3802 50.406 96.495 47.8291 97.7439 44.8141C98.9927 41.7991 99.3195 38.4815 98.6828 35.2808C98.0462 32.0802 96.4747 29.1402 94.1671 26.8326C91.8596 24.525 88.9196 22.9536 85.7189 22.3169C82.5182 21.6802 79.2006 22.007 76.1856 23.2558C73.1707 24.5047 70.5937 26.6195 68.7807 29.3329C66.9676 32.0463 65.9999 35.2364 65.9999 38.4998C65.9999 42.8759 67.7383 47.0727 70.8326 50.1671C73.927 53.2614 78.1238 54.9998 82.4999 54.9998ZM82.4999 32.9998C83.5877 32.9998 84.6511 33.3224 85.5555 33.9268C86.46 34.5311 87.1649 35.3901 87.5812 36.3951C87.9975 37.4001 88.1064 38.5059 87.8942 39.5728C87.682 40.6397 87.1582 41.6197 86.389 42.3889C85.6198 43.1581 84.6398 43.6819 83.5729 43.8941C82.506 44.1064 81.4001 43.9974 80.3951 43.5812C79.3902 43.1649 78.5312 42.4599 77.9268 41.5555C77.3225 40.651 76.9999 39.5876 76.9999 38.4998C76.9999 37.0411 77.5794 35.6422 78.6108 34.6108C79.6423 33.5793 81.0412 32.9998 82.4999 32.9998Z" fill="#FF5FAC"/>
<path id="Vector_3" d="M82.4999 60.5001C76.4049 60.5069 70.4849 62.5382 65.6699 66.2751C60.2827 60.9091 53.4272 57.2584 45.968 55.7834C38.5087 54.3085 30.7797 55.0754 23.7557 57.9874C16.7317 60.8993 10.7273 65.826 6.49957 72.146C2.27188 78.466 0.0102861 85.8964 0 93.5001C0 94.9587 0.579462 96.3577 1.61091 97.3891C2.64236 98.4206 4.0413 99.0001 5.49999 99.0001C6.95868 99.0001 8.35763 98.4206 9.38907 97.3891C10.4205 96.3577 11 94.9587 11 93.5001C11 86.2066 13.8973 79.2119 19.0545 74.0547C24.2118 68.8974 31.2065 66.0001 38.4999 66.0001C45.7934 66.0001 52.7881 68.8974 57.9454 74.0547C63.1026 79.2119 65.9999 86.2066 65.9999 93.5001C65.9999 94.9587 66.5794 96.3577 67.6108 97.3891C68.6423 98.4206 70.0412 99.0001 71.4999 99.0001C72.9586 99.0001 74.3575 98.4206 75.389 97.3891C76.4204 96.3577 76.9999 94.9587 76.9999 93.5001C77.013 87.0564 75.3852 80.7156 72.2699 75.0751C74.7005 73.1544 77.6227 71.9568 80.7021 71.6193C83.7815 71.2817 86.8937 71.8179 89.6827 73.1665C92.4716 74.515 94.8245 76.6214 96.4722 79.2447C98.12 81.868 98.9959 84.9022 98.9999 88.0001C98.9999 89.4588 99.5793 90.8577 100.611 91.8892C101.642 92.9206 103.041 93.5001 104.5 93.5001C105.959 93.5001 107.357 92.9206 108.389 91.8892C109.42 90.8577 110 89.4588 110 88.0001C110 80.7066 107.103 73.7119 101.945 68.5547C96.7881 63.3974 89.7933 60.5001 82.4999 60.5001Z" fill="#FF5FAC"/>
</g>
</svg>
