<svg width="111" height="99" viewBox="0 0 111 99" fill="none" xmlns="http://www.w3.org/2000/svg">
<path d="M39 44C43.3512 44 47.6047 42.7097 51.2225 40.2923C54.8404 37.8749 57.6602 34.439 59.3253 30.419C60.9905 26.3991 61.4261 21.9756 60.5773 17.708C59.7284 13.4404 57.6331 9.52041 54.5563 6.44366C51.4796 3.3669 47.5596 1.27161 43.292 0.422734C39.0244 -0.426141 34.6009 0.00953221 30.581 1.67466C26.561 3.33979 23.1251 6.15958 20.7077 9.77746C18.2903 13.3953 17 17.6488 17 22C17 27.8348 19.3178 33.4306 23.4436 37.5564C27.5694 41.6822 33.1652 44 39 44ZM39 11C41.1756 11 43.3023 11.6451 45.1113 12.8538C46.9202 14.0625 48.3301 15.7805 49.1627 17.7905C49.9952 19.8005 50.2131 22.0122 49.7886 24.146C49.3642 26.2798 48.3165 28.2398 46.7782 29.7782C45.2398 31.3166 43.2798 32.3642 41.146 32.7886C39.0122 33.2131 36.8005 32.9952 34.7905 32.1627C32.7805 31.3301 31.0625 29.9202 29.8538 28.1113C28.6451 26.3023 28 24.1756 28 22C28 19.0826 29.1589 16.2847 31.2218 14.2218C33.2847 12.1589 36.0826 11 39 11Z" fill="#FF5FAC"/>
<path d="M83 54.9999C86.2634 54.9999 89.4535 54.0322 92.1669 52.2191C94.8803 50.4061 96.9952 47.8291 98.244 44.8142C99.4929 41.7992 99.8196 38.4816 99.183 35.2809C98.5463 32.0802 96.9748 29.1402 94.6673 26.8326C92.3597 24.5251 89.4197 22.9536 86.219 22.3169C83.0183 21.6803 79.7007 22.007 76.6857 23.2559C73.6707 24.5047 71.0938 26.6196 69.2808 29.333C67.4677 32.0464 66.5 35.2365 66.5 38.4999C66.5 42.876 68.2384 47.0728 71.3327 50.1671C74.4271 53.2615 78.6239 54.9999 83 54.9999ZM83 32.9999C84.0878 32.9999 85.1512 33.3225 86.0556 33.9268C86.9601 34.5311 87.6651 35.3901 88.0813 36.3951C88.4976 37.4001 88.6065 38.506 88.3943 39.5729C88.1821 40.6398 87.6583 41.6198 86.8891 42.389C86.1199 43.1582 85.1399 43.682 84.073 43.8942C83.0061 44.1064 81.9002 43.9975 80.8952 43.5812C79.8902 43.1649 79.0313 42.46 78.4269 41.5555C77.8226 40.6511 77.5 39.5877 77.5 38.4999C77.5 37.0412 78.0795 35.6422 79.1109 34.6108C80.1424 33.5793 81.5413 32.9999 83 32.9999Z" fill="#FF5FAC"/>
<path d="M83 60.5002C76.905 60.5069 70.985 62.5383 66.17 66.2752C60.7828 60.9091 53.9273 57.2585 46.468 55.7835C39.0087 54.3086 31.2798 55.0755 24.2557 57.9874C17.2317 60.8994 11.2273 65.826 6.99958 72.1461C2.77188 78.4661 0.510286 85.8965 0.5 93.5002C0.5 94.9589 1.07946 96.3578 2.11091 97.3893C3.14236 98.4207 4.54131 99.0002 6 99.0002C7.45869 99.0002 8.85764 98.4207 9.88909 97.3893C10.9205 96.3578 11.5 94.9589 11.5 93.5002C11.5 86.2067 14.3973 79.212 19.5546 74.0547C24.7118 68.8975 31.7065 66.0002 39 66.0002C46.2934 66.0002 53.2882 68.8975 58.4454 74.0547C63.6027 79.212 66.5 86.2067 66.5 93.5002C66.5 94.9589 67.0795 96.3578 68.1109 97.3893C69.1423 98.4207 70.5413 99.0002 72 99.0002C73.4587 99.0002 74.8576 98.4207 75.8891 97.3893C76.9205 96.3578 77.5 94.9589 77.5 93.5002C77.5131 87.0565 75.8853 80.7157 72.77 75.0752C75.2006 73.1545 78.1228 71.9569 81.2022 71.6193C84.2816 71.2818 87.3938 71.818 90.1828 73.1665C92.9717 74.5151 95.3246 76.6215 96.9724 79.2448C98.6201 81.8681 99.4961 84.9023 99.5 88.0002C99.5 89.4589 100.079 90.8578 101.111 91.8893C102.142 92.9207 103.541 93.5002 105 93.5002C106.459 93.5002 107.858 92.9207 108.889 91.8893C109.921 90.8578 110.5 89.4589 110.5 88.0002C110.5 80.7067 107.603 73.712 102.445 68.5547C97.2882 63.3975 90.2934 60.5002 83 60.5002Z" fill="#FF5FAC"/>
</svg>
