<svg width="111" height="99" viewBox="0 0 111 99" fill="none" xmlns="http://www.w3.org/2000/svg">
<path d="M93.9451 21.9685H77.4687V13.7303C77.4687 10.0888 76.0221 6.59644 73.4472 4.02151C70.8723 1.44658 67.3799 0 63.7384 0H47.2621C43.6206 0 40.1282 1.44658 37.5533 4.02151C34.9784 6.59644 33.5318 10.0888 33.5318 13.7303V21.9685H17.0554C12.6856 21.9685 8.49483 23.7044 5.40491 26.7943C2.315 29.8842 0.579102 34.075 0.579102 38.4448V82.3817C0.579102 86.7515 2.315 90.9424 5.40491 94.0323C8.49483 97.1222 12.6856 98.8581 17.0554 98.8581H93.9451C98.3149 98.8581 102.506 97.1222 105.596 94.0323C108.686 90.9424 110.421 86.7515 110.421 82.3817V38.4448C110.421 34.075 108.686 29.8842 105.596 26.7943C102.506 23.7044 98.3149 21.9685 93.9451 21.9685ZM44.516 13.7303C44.516 13.002 44.8053 12.3035 45.3203 11.7885C45.8353 11.2735 46.5338 10.9842 47.2621 10.9842H63.7384C64.4667 10.9842 65.1652 11.2735 65.6802 11.7885C66.1952 12.3035 66.4845 13.002 66.4845 13.7303V21.9685H44.516V13.7303ZM99.4372 82.3817C99.4372 83.8383 98.8586 85.2353 97.8286 86.2652C96.7986 87.2952 95.4017 87.8738 93.9451 87.8738H17.0554C15.5988 87.8738 14.2019 87.2952 13.1719 86.2652C12.142 85.2353 11.5633 83.8383 11.5633 82.3817V38.4448C11.5633 36.9882 12.142 35.5913 13.1719 34.5613C14.2019 33.5313 15.5988 32.9527 17.0554 32.9527H93.9451C95.4017 32.9527 96.7986 33.5313 97.8286 34.5613C98.8586 35.5913 99.4372 36.9882 99.4372 38.4448V82.3817Z" fill="#FF5FAC"/>
</svg>
